<svg id="Layer_1" data-name="Layer 1" xmlns="http://www.w3.org/2000/svg" xmlns:xlink="http://www.w3.org/1999/xlink" viewBox="0 0 169.65 120.59"><defs><style>.cls-1,.cls-4{fill:none;}.cls-2{clip-path:url(#clip-path);}.cls-3{fill:#fff100;}.cls-4{stroke:#231916;stroke-width:0.5px;}.cls-5{fill:#00a1e9;}.cls-6{fill:#e4007f;}</style><clipPath id="clip-path" transform="translate(-426.8 -323.6)"><rect class="cls-1" x="426.8" y="323.6" width="169.65" height="120.59"/></clipPath></defs><g class="cls-2"><path class="cls-3" d="M511.09,444.19a60.3,60.3,0,1,0-60.29-60.3,60.3,60.3,0,0,0,60.29,60.3" transform="translate(-426.8 -323.6)"/><path class="cls-4" d="M426.9,387.44s130.9,55.7,166.12,0" transform="translate(-426.8 -323.6)"/><path class="cls-4" d="M430.11,400s130.9,55.7,166.13,0" transform="translate(-426.8 -323.6)"/><path class="cls-5" d="M587.05,399.68a4.54,4.54,0,1,0-4.53-4.54,4.54,4.54,0,0,0,4.53,4.54" transform="translate(-426.8 -323.6)"/><path class="cls-6" d="M484.81,421.83a4.54,4.54,0,1,0-4.53-4.54,4.53,4.53,0,0,0,4.53,4.54" transform="translate(-426.8 -323.6)"/></g></svg>